<svg width="22" height="29" viewBox="0 0 22 29" fill="none" xmlns="http://www.w3.org/2000/svg">
<path d="M15.3005 0.315063H4.10521C2.46968 0.315063 1.13848 1.6451 1.13848 3.27726V14.2307H0.848663C0.188553 14.2307 -0.34668 14.7647 -0.34668 15.4243V22.6632C-0.34668 23.3228 0.188553 23.8569 0.848663 23.8569H1.13848V25.1842C1.13848 26.8181 2.46974 28.1464 4.10521 28.1464H19.3807C21.0153 28.1464 22.3466 26.8181 22.3466 25.1842V7.32565L15.3005 0.315063ZM5.36294 20.8191C5.70606 20.8191 6.08647 20.7446 6.31066 20.6555L6.48185 21.5415C6.2732 21.6461 5.80307 21.7581 5.19169 21.7581C3.45331 21.7581 2.55808 20.6782 2.55808 19.248C2.55808 17.535 3.78169 16.5816 5.30339 16.5816C5.89285 16.5816 6.34026 16.7007 6.54157 16.8045L6.31066 17.706C6.07918 17.6087 5.75849 17.5196 5.35571 17.5196C4.45273 17.5196 3.75163 18.0635 3.75163 19.1808C3.75163 20.186 4.34843 20.8191 5.36294 20.8191ZM19.3807 26.3323H4.10521C3.47193 26.3323 2.95618 25.8174 2.95618 25.1842V23.8569H17.1961C17.8563 23.8569 18.3916 23.3228 18.3916 22.6632V15.4243C18.3916 14.7647 17.8563 14.2307 17.1961 14.2307H2.95618V3.27726C2.95618 2.64581 3.47193 2.13091 4.10521 2.13091L14.6208 2.12V6.00099C14.6208 7.13453 15.542 8.05523 16.6782 8.05523L20.4858 8.04438L20.5287 25.1842C20.5287 25.8174 20.0139 26.3323 19.3807 26.3323ZM8.48374 19.5756C7.64811 19.2854 7.10334 18.8232 7.10334 18.0935C7.10334 17.2364 7.81941 16.5815 9.00573 16.5815C9.57247 16.5815 9.99075 16.7006 10.2887 16.8344L10.0353 17.7506C9.83402 17.6541 9.47587 17.5121 8.98342 17.5121C8.49097 17.5121 8.25226 17.736 8.25226 17.9963C8.25226 18.3165 8.5356 18.4584 9.18478 18.704C10.0727 19.0316 10.4904 19.4937 10.4904 20.2015C10.4904 21.043 9.84125 21.7581 8.46131 21.7581C7.88682 21.7581 7.31967 21.6089 7.03633 21.4524L7.2677 20.5144C7.57347 20.6709 8.04361 20.8265 8.52831 20.8265C9.05042 20.8265 9.32648 20.6108 9.32648 20.2833C9.32654 19.9704 9.08783 19.7912 8.48374 19.5756ZM12.5142 19.5756C11.6787 19.2854 11.1338 18.8232 11.1338 18.0935C11.1338 17.2364 11.85 16.5815 13.0362 16.5815C13.6035 16.5815 14.0207 16.7006 14.3196 16.8344L14.0659 17.7506C13.8645 17.6541 13.5065 17.5121 13.014 17.5121C12.5215 17.5121 12.2828 17.736 12.2828 17.9963C12.2828 18.3165 12.5661 18.4584 13.2154 18.704C14.1033 19.0316 14.5212 19.4937 14.5212 20.2015C14.5212 21.043 13.872 21.7581 12.492 21.7581C11.9174 21.7581 11.3502 21.6089 11.0669 21.4524L11.2984 20.5144C11.604 20.6709 12.0742 20.8265 12.5589 20.8265C13.081 20.8265 13.3571 20.6108 13.3571 20.2833C13.357 19.9704 13.1183 19.7912 12.5142 19.5756Z" fill="#2A7AE4"/>
</svg>
