<?xml version="1.0"?>
<svg width="1280" height="814" xmlns="http://www.w3.org/2000/svg" xmlns:svg="http://www.w3.org/2000/svg" preserveAspectRatio="xMidYMid meet">
 <metadata>Created by potrace 1.15, written by Peter Selinger 2001-2017</metadata>
 <g class="layer">
  <title>Layer 1</title>
  <g fill="#000000" id="svg_1" transform="translate(0 814) scale(0.1 -0.1)">
   <path d="m2395,8133c-228,-28 -483,-164 -621,-331c-123,-150 -217,-360 -255,-575l-13,-69l-85,-73c-346,-294 -600,-668 -729,-1075c-67,-209 -92,-365 -102,-625c-7,-196 -8,-206 -79,-545c-267,-1278 -413,-2138 -487,-2865c-21,-206 -24,-520 -6,-625c25,-142 62,-298 88,-372c123,-341 411,-650 769,-823c374,-181 772,-203 1186,-65c411,136 752,413 1048,850c118,174 193,307 434,765c121,231 222,421 223,423c1,2 29,-18 61,-44c182,-149 431,-263 653,-299c193,-31 432,-16 624,40c361,104 716,405 877,743l30,62l389,0l389,0l30,-62c40,-84 137,-229 203,-304c283,-320 659,-494 1068,-494c322,1 589,90 855,287c48,35 91,61 95,56c4,-4 103,-190 220,-413c233,-444 314,-587 431,-760c205,-303 429,-527 681,-681c424,-259 909,-326 1348,-187c441,140 827,499 974,906c26,74 63,230 88,372c18,105 15,419 -6,625c-78,766 -214,1552 -536,3113c-24,114 -30,168 -30,268c0,654 -299,1277 -831,1729l-85,73l-13,69c-27,149 -89,319 -162,443c-128,216 -336,369 -599,441c-101,28 -357,33 -940,20c-385,-8 -457,-12 -535,-29c-278,-62 -534,-212 -688,-402c-121,-151 -202,-372 -232,-642l-6,-58l-1724,0l-1723,0l-12,103c-25,215 -83,397 -173,535c-139,214 -423,395 -730,463c-78,18 -147,22 -462,29c-375,8 -845,10 -900,3z" fill="#2a7ae4" id="svg_2"/>
  </g>
 </g>
</svg>